<svg fill="#be1616" xmlns="http://www.w3.org/2000/svg" viewBox="0 0 512 512"><circle cx="224" cy="138.667" r="32"/><path d="M437.333 245.333A10.66 10.66 0 00448 234.666V192h32a10.66 10.66 0 0010.667-10.667v-42.667A10.66 10.66 0 00480 127.999h-53.333V85.333h15.5c4.406 0 8.354-2.708 9.948-6.823a10.641 10.641 0 00-2.771-11.729C402 23.719 340.917 0 277.333 0c-141.156 0-256 114.844-256 256s114.844 256 256 256c63.583 0 124.667-23.719 172.01-66.781a10.643 10.643 0 002.771-11.729 10.667 10.667 0 00-9.948-6.823h-15.5v-21.333H480a10.66 10.66 0 0010.667-10.667v-64A10.66 10.66 0 00480 320h-74.667v-53.333H43.207c-.161-3.561-.54-7.066-.54-10.667s.379-7.105.54-10.667h394.126zm-96-117.333H384a10.66 10.66 0 0110.667 10.667A10.66 10.66 0 01384 149.334h-42.667a10.66 10.66 0 01-10.667-10.667A10.662 10.662 0 01341.333 128zM224 64c41.167 0 74.667 33.5 74.667 74.667s-33.5 74.667-74.667 74.667-74.667-33.5-74.667-74.667S182.833 64 224 64zM96 128h21.333A10.66 10.66 0 01128 138.667a10.66 10.66 0 01-10.667 10.667H96a10.66 10.66 0 01-10.667-10.667A10.66 10.66 0 0196 128zm234.667 192h32a10.66 10.66 0 0110.667 10.667 10.66 10.66 0 01-10.667 10.667h-32A10.66 10.66 0 01320 330.667 10.66 10.66 0 01330.667 320zm-192 64H96a10.66 10.66 0 01-10.667-10.667A10.66 10.66 0 0196 362.666h42.667a10.66 10.66 0 0110.667 10.667A10.662 10.662 0 01138.667 384zm-53.334-85.333h96A10.66 10.66 0 01192 309.334a10.66 10.66 0 01-10.667 10.667h-96a10.66 10.66 0 01-10.667-10.667 10.662 10.662 0 0110.667-10.667z"/></svg>